<svg width="56" height="56" viewBox="0 0 56 56" fill="none" xmlns="http://www.w3.org/2000/svg">
<circle cx="31" cy="30.47" r="25" fill="#1EFF8C"/>
<path d="M22.173 19.893C23.997 20.653 25.46 21.793 26.562 23.313C27.702 24.795 28.272 26.79 28.272 29.298C28.272 31.16 27.911 32.832 27.189 34.314C26.505 35.758 25.574 36.993 24.396 38.019C23.218 39.045 21.831 39.824 20.235 40.356C18.677 40.888 17.043 41.154 15.333 41.154C13.623 41.154 12.008 40.907 10.488 40.413C8.968 39.881 7.619 39.121 6.441 38.133C5.301 37.107 4.389 35.872 3.705 34.428C3.059 32.984 2.736 31.35 2.736 29.526H8.379C8.341 30.78 8.683 31.901 9.405 32.889C10.127 33.877 11.077 34.58 12.255 34.998C13.243 35.34 14.269 35.511 15.333 35.511C16.245 35.511 17.138 35.378 18.012 35.112C18.886 34.846 19.646 34.447 20.292 33.915C20.976 33.383 21.527 32.737 21.945 31.977C22.363 31.217 22.572 30.324 22.572 29.298C22.572 28.082 22.325 27.056 21.831 26.22C21.375 25.384 20.748 24.719 19.95 24.225C19.152 23.693 18.24 23.332 17.214 23.142C16.226 22.914 15.181 22.8 14.079 22.8V17.1C15.067 17.1 16.017 17.005 16.929 16.815C17.841 16.625 18.658 16.302 19.38 15.846C20.102 15.39 20.672 14.782 21.09 14.022C21.546 13.262 21.774 12.331 21.774 11.229C21.774 10.279 21.584 9.46203 21.204 8.77803C20.824 8.09403 20.33 7.52403 19.722 7.06803C19.114 6.61203 18.411 6.27003 17.613 6.04203C16.853 5.81403 16.055 5.70003 15.219 5.70003C14.307 5.66203 13.376 5.81403 12.426 6.15603C11.362 6.49803 10.507 7.12503 9.861 8.03703C9.253 8.91103 8.968 9.89903 9.006 11.001H3.363C3.363 9.29103 3.667 7.75203 4.275 6.38403C4.921 5.01603 5.776 3.85703 6.84 2.90703C7.942 1.95703 9.215 1.23503 10.659 0.74103C12.103 0.24703 13.623 2.95639e-05 15.219 2.95639e-05C16.853 2.95639e-05 18.411 0.26603 19.893 0.798029C21.375 1.29203 22.667 2.03303 23.769 3.02103C24.909 3.97103 25.802 5.14903 26.448 6.55503C27.132 7.92303 27.474 9.48103 27.474 11.229C27.474 13.509 26.98 15.333 25.992 16.701C25.042 18.069 23.769 19.133 22.173 19.893ZM37.2099 32.661C38.4639 32.661 39.3949 33.041 40.0029 33.801C40.6489 34.561 40.9719 35.416 40.9719 36.366C40.9719 37.278 40.6489 38.133 40.0029 38.931C39.3949 39.691 38.4829 40.071 37.2669 40.071C36.0509 40.071 35.1199 39.691 34.4739 38.931C33.8659 38.133 33.5429 37.278 33.5049 36.366C33.5049 35.454 33.8089 34.618 34.4169 33.858C35.0249 33.06 35.9559 32.661 37.2099 32.661Z" fill="#041E18"/>
</svg>
