<svg width="56" height="56" viewBox="0 0 56 56" fill="none" xmlns="http://www.w3.org/2000/svg">
<circle cx="31" cy="30.527" r="25" fill="#1EFF8C"/>
<path d="M3.477 12.711C3.477 10.849 3.8 9.13898 4.446 7.58098C5.092 6.02298 5.985 4.69298 7.125 3.59098C8.265 2.45098 9.614 1.57698 11.172 0.968977C12.73 0.322976 14.421 -2.39015e-05 16.245 -2.39015e-05C18.183 -2.39015e-05 19.95 0.360976 21.546 1.08298C23.18 1.80498 24.567 2.79298 25.707 4.04697C26.885 5.26298 27.797 6.72598 28.443 8.43598C29.089 10.108 29.412 11.913 29.412 13.851C29.412 16.245 29.013 18.278 28.215 19.95C27.455 21.622 26.448 23.066 25.194 24.282C23.978 25.498 22.591 26.543 21.033 27.417C19.475 28.291 17.917 29.127 16.359 29.925C14.915 30.685 13.547 31.445 12.255 32.205C10.963 32.965 9.975 33.839 9.291 34.827H29.127V40.527H2.85V37.791C2.812 35.967 3.078 34.409 3.648 33.117C4.256 31.787 5.073 30.647 6.099 29.697C7.125 28.709 8.303 27.854 9.633 27.132C10.963 26.372 12.35 25.631 13.794 24.909C15.01 24.301 16.207 23.674 17.385 23.028C18.563 22.344 19.608 21.584 20.52 20.748C21.47 19.874 22.23 18.886 22.8 17.784C23.408 16.682 23.712 15.371 23.712 13.851C23.712 12.711 23.541 11.647 23.199 10.659C22.857 9.63298 22.363 8.75898 21.717 8.03697C21.071 7.27698 20.292 6.68798 19.38 6.26998C18.468 5.85198 17.423 5.64297 16.245 5.64297C14.193 5.64297 12.483 6.28898 11.115 7.58098C9.785 8.83498 9.12 10.545 9.12 12.711H3.477ZM38.3231 32.718C39.5771 32.718 40.5081 33.098 41.1161 33.858C41.7621 34.618 42.0851 35.473 42.0851 36.423C42.0851 37.335 41.7621 38.19 41.1161 38.988C40.5081 39.748 39.5961 40.128 38.3801 40.128C37.1641 40.128 36.2331 39.748 35.5871 38.988C34.9791 38.19 34.6561 37.335 34.6181 36.423C34.6181 35.511 34.9221 34.675 35.5301 33.915C36.1381 33.117 37.0691 32.718 38.3231 32.718Z" fill="#041E18"/>
</svg>
