<svg width="56" height="55" viewBox="0 0 56 55" fill="none" xmlns="http://www.w3.org/2000/svg">
<circle cx="31" cy="30" r="25" fill="#1EFF8C"/>
<path d="M12.426 0.156997V40H6.783V5.857H2.622V0.156997H12.426ZM21.7909 32.191C23.0449 32.191 23.9759 32.571 24.5839 33.331C25.2299 34.091 25.5529 34.946 25.5529 35.896C25.5529 36.808 25.2299 37.663 24.5839 38.461C23.9759 39.221 23.0639 39.601 21.8479 39.601C20.6319 39.601 19.7009 39.221 19.0549 38.461C18.4469 37.663 18.1239 36.808 18.0859 35.896C18.0859 34.984 18.3899 34.148 18.9979 33.388C19.6059 32.59 20.5369 32.191 21.7909 32.191Z" fill="#041E18"/>
</svg>
