<svg width="25" height="19" viewBox="0 0 25 19" fill="none" xmlns="http://www.w3.org/2000/svg">
<path d="M19.98 6.83996C21.42 7.25996 22.47 8.09996 23.13 9.35996C23.79 10.56 24.03 11.82 23.85 13.14C23.73 14.46 23.19 15.66 22.23 16.74C21.33 17.76 19.98 18.27 18.18 18.27C17.4 18.33 16.65 18.21 15.93 17.91C15.21 17.61 14.58 17.19 14.04 16.65C12.9 15.51 12.33 14.16 12.33 12.6C12.45 11.1 12.81 9.68996 13.41 8.36996L16.2 -4.27961e-05H21.15L19.98 6.83996ZM7.65 6.83996C9.09 7.25996 10.14 8.09996 10.8 9.35996C11.46 10.56 11.7 11.82 11.52 13.14C11.4 14.46 10.86 15.66 9.9 16.74C9 17.76 7.65 18.27 5.85 18.27C5.07 18.33 4.32 18.21 3.6 17.91C2.88 17.61 2.25 17.19 1.71 16.65C0.569998 15.57 -2.33948e-06 14.22 -2.33948e-06 12.6C0.0599978 11.22 0.389998 9.80996 0.989998 8.36996L3.87 -4.27961e-05H8.82L7.65 6.83996Z" fill="#0F6C58"/>
</svg>
