<svg width="422" height="422" viewBox="0 0 422 422" fill="none" xmlns="http://www.w3.org/2000/svg">
<g opacity="0.7">
<path d="M422 211C422 144.801 391.21 85.7173 343.266 46.969C341.484 45.2383 339.797 43.4115 337.725 41.9212C306.55 18.7011 270.508 4.85555 232.394 1.15379C232.249 1.15379 232.105 1.15379 231.912 1.10572C225.166 0.480747 218.324 0 211.434 0C211.289 0 211.096 0 210.952 0C210.807 0 210.615 0 210.47 0C203.58 0 196.786 0.432673 189.992 1.10572C189.847 1.10572 189.702 1.10572 189.51 1.15379C151.396 4.90362 115.354 18.7011 84.2265 41.9212C82.1546 43.4596 80.4681 45.2383 78.6853 47.0171C30.7899 85.7172 0 144.801 0 211C0 277.199 30.7899 336.283 78.7335 375.031C80.5163 376.762 82.2028 378.589 84.2747 380.079C115.402 403.299 151.492 417.096 189.558 420.846C189.702 420.846 189.847 420.846 190.04 420.894C196.786 421.519 203.628 422 210.518 422C210.663 422 210.855 422 211 422C211.145 422 211.337 422 211.482 422C218.372 422 225.166 421.567 231.96 420.894C232.105 420.894 232.249 420.894 232.442 420.846C270.556 417.096 306.598 403.299 337.725 380.079C339.797 378.54 341.484 376.762 343.266 374.983C391.21 336.283 422 277.151 422 210.952V211ZM114.535 211C114.535 157.829 157.756 114.562 211 114.274C264.244 114.562 307.465 157.829 307.465 211C307.465 264.171 264.244 307.438 211 307.726C157.756 307.438 114.535 264.171 114.535 211Z" fill="#F4F5F4"/>
</g>
</svg>
