<svg width="377" height="268" viewBox="0 0 377 268" fill="none" xmlns="http://www.w3.org/2000/svg">
<path fill-rule="evenodd" clip-rule="evenodd" d="M304.808 0.5C304.808 0.5 304.809 0.617118 72.133 0.617118C32.6617 0.617118 0.5 32.5897 0.5 72.1163C0.5 111.643 32.6617 143.791 72.133 143.791H216.276C190.079 196.669 135.813 233.033 72.7176 233.326C72.4837 233.326 72.3084 233.267 72.133 233.267C32.6617 233.267 0.616709 265.299 0.616709 304.884C0.616709 344.469 32.6033 376.5 72.133 376.5C240.251 376.5 376.5 240.294 376.5 72.2334C376.5 32.6483 344.514 0.675675 304.808 0.558559V0.5Z" stroke="#E6E9E8" stroke-linecap="round" stroke-linejoin="round"/>
</svg>
