<svg width="269" height="257" viewBox="0 0 269 257" fill="none" xmlns="http://www.w3.org/2000/svg">
<path d="M268.5 122C268.5 79.959 248.946 42.4365 218.499 17.8287C217.366 16.7296 216.295 15.5694 214.98 14.6229C195.181 -0.12349 172.292 -8.91638 148.087 -11.2673C147.995 -11.2673 147.903 -11.2673 147.781 -11.2978C143.497 -11.6947 139.151 -12 134.775 -12C134.684 -12 134.561 -12 134.469 -12C134.378 -12 134.255 -12 134.163 -12C129.788 -12 125.473 -11.7252 121.158 -11.2978C121.066 -11.2978 120.975 -11.2978 120.852 -11.2673C96.6471 -8.88585 73.7578 -0.12349 53.9898 14.6229C52.674 15.5999 51.603 16.7296 50.4708 17.8592C20.0538 42.4365 0.5 79.959 0.5 122C0.5 164.041 20.0538 201.563 50.5014 226.171C51.6336 227.27 52.7046 228.431 54.0204 229.377C73.7884 244.123 96.7083 252.886 120.883 255.267C120.975 255.267 121.066 255.267 121.189 255.298C125.473 255.695 129.818 256 134.194 256C134.286 256 134.408 256 134.5 256C134.592 256 134.714 256 134.806 256C139.182 256 143.497 255.725 147.811 255.298C147.903 255.298 147.995 255.298 148.117 255.267C172.322 252.886 195.212 244.123 214.98 229.377C216.295 228.4 217.366 227.27 218.499 226.141C248.946 201.563 268.5 164.01 268.5 121.969V122ZM73.2376 122C73.2376 88.2329 100.686 60.7551 134.5 60.5719C168.314 60.7551 195.762 88.2329 195.762 122C195.762 155.767 168.314 183.245 134.5 183.428C100.686 183.245 73.2376 155.767 73.2376 122Z" stroke="#E6E9E8" stroke-linecap="round" stroke-linejoin="round"/>
</svg>
