<svg width="271" height="464" viewBox="0 0 271 464" fill="none" xmlns="http://www.w3.org/2000/svg">
<g opacity="0.7">
<path fill-rule="evenodd" clip-rule="evenodd" d="M375.53 0C375.53 0 375.53 0.144529 88.3981 0.144529C39.689 0.144529 0 39.6001 0 88.3775C0 137.155 39.689 176.827 88.3981 176.827H266.277C233.948 242.081 166.982 286.956 89.1196 287.317C88.8309 287.317 88.6146 287.245 88.3981 287.245C39.689 287.245 0.144024 326.773 0.144024 375.622C0.144024 424.472 39.6168 464 88.3981 464C295.863 464 464 295.917 464 88.522C464 39.6723 424.527 0.21679 375.53 0.0722645V0Z" fill="#F4F5F4"/>
</g>
</svg>
