<svg width="265" height="285" viewBox="0 0 265 285" fill="none" xmlns="http://www.w3.org/2000/svg">
<path fill-rule="evenodd" clip-rule="evenodd" d="M179.559 6H64.8273C62.7759 6 60.7978 6.26717 58.8441 6.65579C57.9405 6.80153 57.0613 7.0687 56.1821 7.31159C55.8646 7.40875 55.5472 7.45732 55.2297 7.55448C45.9496 10.3477 38.1591 17.5614 35.1553 27.447L5.70296 123.825L1.79551 136.625C-2.99111 152.315 5.8983 168.929 21.699 173.714C37.4509 178.474 54.1551 169.609 58.9418 153.918L83.2412 74.4457C84.8041 69.2964 89.5663 65.8232 94.7437 65.6288L144.563 65.4588L179.608 65.4345C196.093 65.4345 209.5 52.1243 209.5 35.7537C209.5 19.3831 196.117 6.02429 179.608 6.02429L179.559 6Z" stroke="#E6E9E8" stroke-linecap="round" stroke-linejoin="round"/>
<path d="M59.3422 337C54.2945 337 49.204 336.276 44.1135 334.702C16.7788 326.36 1.37899 297.545 9.80612 270.306L70.336 74.0529C83.0836 30.8101 124.193 0.165519 170.135 0.165519C171.29 0.0803955 172.531 0.0378328 174.028 0.0378328C176.21 -0.0472909 178.049 0.0378328 179.931 0.0378328H181.257C227.115 0.0378328 267.069 29.3204 280.629 72.8186L340.303 270.603C348.517 297.843 332.989 326.615 305.568 334.787C278.191 342.959 249.273 327.509 241.06 300.227L181.642 103.25C181.642 103.25 180.872 98.8664 175.611 98.8664C170.349 98.8664 169.708 103.25 169.708 103.25L108.878 300.524C102.034 322.699 81.5436 336.957 59.385 336.957L59.3422 337Z" fill="#F4F5F4"/>
</svg>
