<svg width="836" height="320" viewBox="0 0 836 320" fill="none" xmlns="http://www.w3.org/2000/svg">
<path d="M194.802 668C183.381 668 171.863 666.364 160.345 662.803C98.4947 643.941 63.6498 578.788 82.7177 517.195L219.678 73.443C248.522 -24.3345 341.538 -93.6257 445.493 -93.6257C448.106 -93.8182 450.913 -93.9145 454.301 -93.9145C459.237 -94.1069 463.399 -93.9145 467.658 -93.9145H470.658C574.419 -93.9145 664.823 -27.7029 695.506 70.6521L830.53 517.869C849.114 579.461 813.978 644.518 751.935 662.996C689.988 681.473 624.557 646.539 605.973 584.85L471.53 139.462C471.53 139.462 469.787 129.55 457.882 129.55C445.977 129.55 444.525 139.462 444.525 139.462L306.887 585.524C291.401 635.664 245.037 667.904 194.899 667.904L194.802 668Z" fill="#F4F5F4"/>
<path fill-rule="evenodd" clip-rule="evenodd" d="M612.215 77H220.259C213.251 77 206.493 77.9169 199.818 79.2507C196.731 79.7508 193.728 80.6677 190.725 81.5013C189.64 81.8348 188.555 82.0015 187.471 82.3349C155.767 91.921 129.153 116.678 118.891 150.605L18.2742 481.369L4.92529 525.298C-11.4271 579.147 18.9415 636.164 72.921 652.586C126.734 668.924 183.8 638.498 200.152 584.649L283.165 311.902C288.505 294.23 304.774 282.31 322.461 281.643L492.659 281.06L612.381 280.976C668.697 280.976 714.5 235.296 714.5 179.113C714.5 122.93 668.78 77.0834 612.381 77.0834L612.215 77Z" stroke="#E6E9E8" stroke-linecap="round" stroke-linejoin="round"/>
</svg>
