<svg width="616" height="320" viewBox="0 0 616 320" fill="none" xmlns="http://www.w3.org/2000/svg">
<path fill-rule="evenodd" clip-rule="evenodd" d="M527.754 -67H189.596C183.55 -67 177.719 -66.2095 171.961 -65.0598C169.298 -64.6286 166.706 -63.8382 164.115 -63.1196C163.179 -62.8321 162.244 -62.6884 161.308 -62.401C133.956 -54.137 110.995 -32.7946 102.141 -3.54748L15.3345 281.594L3.81779 319.464C-10.2901 365.886 15.9102 415.038 62.4807 429.194C108.907 443.279 158.141 417.05 172.249 370.628L243.868 135.502C248.475 120.268 262.511 109.992 277.77 109.417L424.608 108.914L527.898 108.842C576.484 108.842 616 69.4624 616 21.0287C616 -27.405 576.556 -66.9281 527.898 -66.9281L527.754 -67Z" fill="white"/>
</svg>
