<svg width="587" height="320" viewBox="0 0 587 320" fill="none" xmlns="http://www.w3.org/2000/svg">
<path d="M587 209.5C587 117.418 544.171 35.2323 477.482 -18.6663C475.002 -21.0737 472.656 -23.6148 469.774 -25.6879C426.409 -57.9869 376.275 -77.246 323.259 -82.3951C323.058 -82.3951 322.857 -82.3951 322.589 -82.462C313.205 -83.3313 303.688 -84 294.103 -84C293.902 -84 293.634 -84 293.433 -84C293.232 -84 292.964 -84 292.763 -84C283.178 -84 273.728 -83.3982 264.277 -82.462C264.076 -82.462 263.875 -82.462 263.607 -82.3951C210.591 -77.1791 160.456 -57.9869 117.159 -25.6879C114.277 -23.548 111.931 -21.0737 109.451 -18.5995C42.8286 35.2323 0 117.418 0 209.5C0 301.582 42.8286 383.768 109.518 437.666C111.998 440.074 114.344 442.615 117.226 444.688C160.524 476.987 210.725 496.179 263.674 501.395C263.875 501.395 264.076 501.395 264.344 501.462C273.728 502.331 283.245 503 292.83 503C293.031 503 293.299 503 293.5 503C293.701 503 293.969 503 294.17 503C303.755 503 313.205 502.398 322.656 501.462C322.857 501.462 323.058 501.462 323.326 501.395C376.342 496.179 426.476 476.987 469.774 444.688C472.656 442.548 475.002 440.074 477.482 437.599C544.171 383.768 587 301.516 587 209.433V209.5ZM159.317 209.5C159.317 135.54 219.438 75.3553 293.5 74.9541C367.562 75.3553 427.683 135.54 427.683 209.5C427.683 283.46 367.562 343.645 293.5 344.046C219.438 343.645 159.317 283.46 159.317 209.5Z" fill="#F4F5F4"/>
</svg>
