<svg width="280" height="182" viewBox="0 0 280 182" fill="none" xmlns="http://www.w3.org/2000/svg">
<path fill-rule="evenodd" clip-rule="evenodd" d="M236.325 0C236.325 0 236.325 0.0915766 55.6299 0.0915766C24.9767 0.0915766 0 25.0914 0 55.9978C0 86.9042 24.9767 112.041 55.6299 112.041H167.571C147.226 153.387 105.084 181.821 56.0839 182.05C55.9022 182.05 55.7661 182.004 55.6299 182.004C24.9767 182.004 0.0906358 207.05 0.0906358 238.002C0.0906358 268.954 24.9313 294 55.6299 294C186.19 294 292 187.499 292 56.0894C292 25.1372 267.16 0.137363 236.325 0.0457883V0Z" fill="#F4F5F4"/>
</svg>
