<svg width="587" height="587" viewBox="0 0 587 587" fill="none" xmlns="http://www.w3.org/2000/svg">
<g opacity="0.7">
<path fill-rule="evenodd" clip-rule="evenodd" d="M475.077 0C475.077 0 475.078 0.182842 111.831 0.182842C50.21 0.182842 0 50.0975 0 111.805C0 173.513 50.21 223.702 111.831 223.702H336.863C295.965 306.253 211.247 363.024 112.744 363.481C112.379 363.481 112.105 363.39 111.831 363.39C50.21 363.39 0.182203 413.396 0.182203 475.195C0.182203 536.994 50.1187 587 111.831 587C374.292 587 587 374.36 587 111.988C587 50.1889 537.064 0.274258 475.077 0.0914209V0Z" fill="#F4F5F4"/>
</g>
</svg>
