<svg width="743" height="575" viewBox="0 0 743 575" fill="none" xmlns="http://www.w3.org/2000/svg">
<g opacity="0.7">
<path d="M142.682 929C128.789 929 114.779 927.005 100.769 922.664C25.5369 899.668 -16.847 820.236 6.34649 745.145L172.939 204.14C208.024 84.9333 321.165 0.456283 447.611 0.456283C450.79 0.221624 454.204 0.104293 458.325 0.104293C464.329 -0.130366 469.392 0.104293 474.572 0.104293H478.222C604.432 0.104293 714.395 80.8268 751.716 200.737L915.954 745.966C938.559 821.057 895.822 900.372 820.355 922.899C745.005 945.426 665.418 902.835 642.813 827.627L479.281 284.628C479.281 284.628 477.162 272.543 462.681 272.543C448.2 272.543 446.434 284.628 446.434 284.628L279.017 828.449C260.18 889.577 203.785 928.883 142.799 928.883L142.682 929Z" fill="#F4F5F4"/>
</g>
</svg>
