<svg width="104" height="26" viewBox="0 0 104 26" fill="none" xmlns="http://www.w3.org/2000/svg">
<g clip-path="url(#clip0_166_190)">
<path d="M35.361 9.95327H31.0458C29.3601 9.96926 27.9998 11.3334 27.9998 13.0105C27.9998 14.6975 29.3705 16.0717 31.072 16.0717L35.2434 16.0659C36.943 16.0659 38.3175 14.6956 38.3175 13.0086C38.3175 11.3594 37.004 10.0129 35.361 9.95327Z" fill="url(#paint0_linear_166_190)"/>
<path d="M76.5853 22.9425C76.5815 24.6296 75.2107 25.9903 73.5131 25.9903C71.8154 25.9903 70.4466 24.6296 70.4428 22.9425V3.06684C70.4485 1.37407 71.8174 0.00948638 73.5131 0.00948638C75.2088 0.00948638 76.5815 1.37407 76.5853 3.05725L76.5891 22.9425H76.5853Z" fill="#0F6C58"/>
<path d="M84.7294 9.95117C84.2725 10.8705 84.0163 11.905 84.0163 12.9989C84.0163 16.801 87.1096 19.8852 90.9293 19.8852C93.6459 19.8852 95.9935 18.3287 97.1234 16.062H90.9369C89.2431 16.062 87.8628 14.6936 87.8628 13.0009C87.8628 11.3081 89.2431 9.94733 90.9369 9.94733C97.5937 9.94733 100.922 9.94541 100.922 9.94158C102.624 9.94733 103.998 11.3138 103.998 13.0009C103.998 20.1827 98.15 26.0018 90.935 26.0018C83.72 26.0018 77.8757 20.1827 77.8757 13.0009C77.8757 5.81904 83.7257 -0.00010984 90.9369 -0.00010984C93.2979 -0.00010984 95.5118 0.623644 97.4293 1.71569L97.4254 1.71953C98.3622 2.24349 98.9969 3.24149 98.9969 4.39112C98.9969 6.08006 97.6224 7.4504 95.9266 7.4504C95.3321 7.4504 94.7757 7.28342 94.3054 6.9917C93.3018 6.4332 92.1528 6.12036 90.9274 6.12036C88.2069 6.12036 85.8554 7.68071 84.7256 9.95309" fill="#0F6C58"/>
<path d="M19.9397 1.95176C20.8459 2.48339 21.4251 3.46605 21.4251 4.58496C21.4251 6.27774 20.0468 7.64616 18.3491 7.64616C17.7374 7.64616 17.1753 7.4504 16.6916 7.1414C15.6306 6.49461 14.3918 6.12036 13.0612 6.12036C9.23956 6.12036 6.14632 9.20075 6.14632 13.0009C6.14632 16.801 9.23956 19.8871 13.0612 19.8871C16.1946 19.8871 18.8232 17.8565 19.6778 15.0161L23.5587 2.38359C23.9525 1.14952 25.1321 0.25515 26.4971 0.25515H38.285C39.9788 0.25515 41.3553 1.62357 41.3553 3.31634C41.3553 5.00912 39.9788 6.3737 38.285 6.3737H29.705C29.1449 6.3737 28.6631 6.73452 28.491 7.23544L25.5641 16.7626C23.9449 22.1077 18.9571 25.998 13.0612 25.998C5.84426 25.9999 0 20.1807 0 12.9989C0 5.81712 5.84426 0.0018094 13.0593 0.0018094C15.5828 0.0018094 17.9362 0.71193 19.9378 1.94984" fill="#0F6C58"/>
<path d="M37.8376 18.7298L37.8415 18.7183L42.9057 2.21278C43.2785 0.94032 44.4562 0.00948638 45.8556 0.00948638C45.9512 0.00948638 46.0257 0.0018094 46.1347 0.0018094C46.28 -0.00394833 46.3794 0.0018094 46.5037 0.0018094C47.8801 0.0018094 49.0444 0.907693 49.4344 2.15136L52.9272 13.5325L56.3875 2.25116C56.7527 0.963351 57.9399 0.00948638 59.3507 0.00948638C59.4444 0.00948638 59.5209 0.00564789 59.6318 0.00564789C59.7713 0.00564789 59.8707 0.00948638 59.995 0.00948638C61.3753 0.00948638 62.5396 0.91345 62.9353 2.15904L69.0128 21.9829C69.1122 22.2823 69.1657 22.6028 69.1657 22.9349C69.1657 24.6257 67.7912 25.9922 66.0916 25.9922C64.7151 25.9922 63.5451 25.0902 63.1551 23.8427L59.6719 12.4923L56.1753 23.8868C55.7547 25.071 54.5943 25.9941 53.2522 25.9941H52.8813C52.7724 25.9884 52.6959 25.9865 52.6003 25.9865C51.2238 25.9865 50.0634 25.0863 49.6696 23.8446L46.1825 12.4807L42.791 23.5279C42.4182 24.8004 41.2387 25.7293 39.8469 25.7293H28.0609C26.3651 25.7293 24.9906 24.3781 24.9906 22.6854C24.9906 20.9926 26.3651 19.628 28.0647 19.628H36.6179C37.1896 19.628 37.679 19.2537 37.8396 18.7336" fill="#0F6C58"/>
</g>
<defs>
<linearGradient id="paint0_linear_166_190" x1="28.3123" y1="13.2452" x2="38.6301" y2="13.2452" gradientUnits="userSpaceOnUse">
<stop stop-color="#1FFF8C"/>
<stop offset="0.1" stop-color="#1FFF8C"/>
<stop offset="0.23" stop-color="#43FF7B"/>
<stop offset="0.46" stop-color="#7AFF61"/>
<stop offset="0.65" stop-color="#A2FF4F"/>
<stop offset="0.81" stop-color="#BAFF44"/>
<stop offset="0.9" stop-color="#C4FF40"/>
<stop offset="1" stop-color="#C4FF40"/>
</linearGradient>
<clipPath id="clip0_166_190">
<rect width="104" height="26" fill="white"/>
</clipPath>
</defs>
</svg>
