<svg width="144" height="36" viewBox="0 0 144 36" fill="none" xmlns="http://www.w3.org/2000/svg">
<g clip-path="url(#clip0_4001_143)">
<path d="M48.9613 13.7815H42.9864C40.6523 13.8036 38.7688 15.6924 38.7688 18.0146C38.7688 20.3504 40.6667 22.2531 43.0226 22.2531L48.7985 22.2452C51.1517 22.2452 53.055 20.3478 53.055 18.0119C53.055 15.7285 51.2363 13.8641 48.9613 13.7815Z" fill="url(#paint0_linear_4001_143)"/>
<path d="M106.041 31.7666C106.036 34.1025 104.138 35.9866 101.787 35.9866C99.4368 35.9866 97.5415 34.1025 97.5362 31.7666V4.24646C97.5441 1.90262 99.4394 0.0131963 101.787 0.0131963C104.135 0.0131963 106.036 1.90262 106.041 4.23317L106.046 31.7666H106.041Z" fill="white"/>
<path d="M117.318 13.7786C116.685 15.0515 116.33 16.4839 116.33 17.9986C116.33 23.2629 120.613 27.5334 125.902 27.5334C129.664 27.5334 132.914 25.3782 134.479 22.2398H125.913C123.567 22.2398 121.656 20.3451 121.656 18.0012C121.656 15.6574 123.567 13.7733 125.913 13.7733C135.13 13.7733 139.738 13.7706 139.738 13.7653C142.094 13.7733 143.997 15.6654 143.997 18.0012C143.997 27.9453 135.9 36.0026 125.91 36.0026C115.92 36.0026 107.828 27.9453 107.828 18.0012C107.828 8.05719 115.928 -9.07575e-05 125.913 -9.07575e-05C129.182 -9.07575e-05 132.247 0.863569 134.902 2.37564L134.897 2.38095C136.194 3.10643 137.073 4.48828 137.073 6.08007C137.073 8.4186 135.169 10.316 132.821 10.316C131.998 10.316 131.228 10.0848 130.577 9.68087C129.187 8.90756 127.596 8.47441 125.899 8.47441C122.133 8.47441 118.877 10.6349 117.312 13.7813" fill="white"/>
<path d="M27.6088 2.7025C28.8635 3.4386 29.6656 4.7992 29.6656 6.34847C29.6656 8.69231 27.7571 10.5871 25.4065 10.5871C24.5594 10.5871 23.7812 10.316 23.1115 9.88815C21.6424 8.9926 19.9271 8.47441 18.0847 8.47441C12.7932 8.47441 8.51029 12.7396 8.51029 18.0012C8.51029 23.2629 12.7932 27.536 18.0847 27.536C22.4232 27.536 26.0629 24.7245 27.2462 20.7915L32.6197 3.30042C33.165 1.5917 34.7982 0.353345 36.6882 0.353345H53.01C55.3553 0.353345 57.2612 2.24808 57.2612 4.59192C57.2612 6.93576 55.3553 8.82518 53.01 8.82518H41.13C40.3544 8.82518 39.6874 9.32478 39.4491 10.0184L35.3965 23.2098C33.1544 30.6107 26.2482 35.9973 18.0847 35.9973C8.09206 35.9999 0 27.9426 0 17.9986C0 8.05454 8.09206 0.00256666 18.0821 0.00256666C21.5762 0.00256666 24.8347 0.98581 27.6062 2.69984" fill="white"/>
<path d="M52.3906 25.9336L52.3959 25.9177L59.4079 3.06391C59.9241 1.30204 61.5547 0.0131963 63.4923 0.0131963C63.6247 0.0131963 63.7279 0.00256666 63.8788 0.00256666C64.08 -0.00540559 64.2176 0.00256666 64.3897 0.00256666C66.2956 0.00256666 67.9076 1.25687 68.4476 2.97887L73.2838 18.7373L78.075 3.11706C78.5806 1.33393 80.2244 0.0131963 82.1779 0.0131963C82.3076 0.0131963 82.4135 0.00788149 82.5671 0.00788149C82.7603 0.00788149 82.8979 0.0131963 83.07 0.0131963C84.9812 0.0131963 86.5932 1.26484 87.1412 2.9895L95.5562 30.4379C95.6938 30.8525 95.7679 31.2963 95.7679 31.756C95.7679 34.0972 93.8647 35.9893 91.5115 35.9893C89.6056 35.9893 87.9856 34.7403 87.4456 33.013L82.6226 17.297L77.7812 33.0741C77.1988 34.7137 75.592 35.9919 73.7338 35.9919H73.2203C73.0694 35.984 72.9635 35.9813 72.8312 35.9813C70.9253 35.9813 69.3185 34.735 68.7732 33.0156L63.945 17.2811L59.2491 32.5772C58.7329 34.339 57.0997 35.6252 55.1726 35.6252H38.8535C36.5056 35.6252 34.6024 33.7544 34.6024 31.4106C34.6024 29.0667 36.5056 27.1773 38.8588 27.1773H50.7018C51.4932 27.1773 52.1709 26.6591 52.3932 25.9389" fill="white"/>
</g>
<defs>
<linearGradient id="paint0_linear_4001_143" x1="39.2016" y1="18.3395" x2="53.4878" y2="18.3395" gradientUnits="userSpaceOnUse">
<stop stop-color="#1FFF8C"/>
<stop offset="0.1" stop-color="#1FFF8C"/>
<stop offset="0.23" stop-color="#43FF7B"/>
<stop offset="0.46" stop-color="#7AFF61"/>
<stop offset="0.65" stop-color="#A2FF4F"/>
<stop offset="0.81" stop-color="#BAFF44"/>
<stop offset="0.9" stop-color="#C4FF40"/>
<stop offset="1" stop-color="#C4FF40"/>
</linearGradient>
<clipPath id="clip0_4001_143">
<rect width="144" height="36" fill="white"/>
</clipPath>
</defs>
</svg>
