<svg width="272" height="19" viewBox="0 0 272 19" fill="none" xmlns="http://www.w3.org/2000/svg">
<path d="M68.8229 6.47792C68.8229 8.10843 67.5055 9.4306 65.8791 9.4306C64.2808 9.4306 62.9798 8.15245 62.9353 6.56195L62.9353 6.39389C62.9798 4.80339 64.2821 3.52642 65.8791 3.52642C67.5042 3.52642 68.8229 4.8474 68.8229 6.47792Z" fill="url(#paint0_linear_166_642)"/>
<path d="M11.3864 15.5646V18.0612H1.27618V18.036H0.0240021V0.563313H11.061V3.05871H2.52715V8.12645H8.88444V10.6219H2.52715V15.5646H11.3864Z" fill="#041E18"/>
<path d="M27.5793 0.563313V18.036H26.403L15.8915 5.65509V18.036H13.4148V0.563313H14.8406L25.0761 12.6196V0.563313H27.5793Z" fill="#041E18"/>
<path d="M41.9196 15.5646V18.0612H31.8094V18.036H30.5584V0.563313H41.5942V3.05871H33.0604V8.12645H39.4177V10.6219H33.0604V15.5646H41.9196Z" fill="#041E18"/>
<path d="M68.2478 12.0451L72.0019 18.036H69.0493L65.4952 12.3696H46.4498V18.036H43.9467V0.588551H66.1207C68.9733 0.588551 70.8004 2.13556 71.6018 4.10808C72.2273 5.63104 72.2273 7.32831 71.6018 8.85007C71.0257 10.3478 69.8001 11.5462 68.2478 12.0451ZM66.1954 9.873C67.8224 9.873 68.848 9.02436 69.2987 7.92571C69.6735 7.00135 69.6735 5.97843 69.2987 5.05527C68.848 3.93258 67.7971 3.08275 66.1207 3.08275H46.4498V9.8718H66.1954V9.873Z" fill="#041E18"/>
<path d="M91.6234 9.29963C91.6234 14.0428 87.944 17.9867 83.1896 18.31C78.434 18.6093 74.2545 15.2148 73.629 10.4969C73.0035 5.80415 76.1321 1.41074 80.8118 0.462339C81.412 0.337329 81.9881 0.288045 82.5882 0.288045C86.593 0.288045 90.2218 2.9337 91.3221 6.95327H88.6948C87.6933 4.38214 85.2661 2.75941 82.6135 2.75941C82.1134 2.75941 81.612 2.80989 81.1119 2.9349C77.9338 3.68376 75.7814 6.62874 76.0562 9.87421C76.3563 13.1185 78.9848 15.6403 82.2375 15.8146C85.5156 15.9889 88.3948 13.7423 89.0202 10.5473H82.9389V8.05072H91.6234V9.29963Z" fill="#041E18"/>
<path d="M96.3294 0.563313H93.8263V18.036H96.3294V0.563313Z" fill="#041E18"/>
<path d="M113.873 18.036H111.195L109.568 14.1174H102.185L100.558 18.036H97.8806L105.089 0.563313H106.665L113.873 18.036ZM108.543 11.6208L105.89 5.15625L103.212 11.6208H108.543Z" fill="#041E18"/>
<path d="M136.13 15.24V17.7366H124.118V0.289238H126.595V15.24H136.13Z" fill="#041E18"/>
<path d="M140.236 0.289238H137.733V17.7619H140.236V0.289238Z" fill="#041E18"/>
<path d="M157.827 0.288064L150.044 17.7619H149.519L141.736 0.288064H144.463L149.794 12.2458L155.125 0.288064H157.827Z" fill="#041E18"/>
<path d="M168.666 12.0703L172.22 17.7619H169.291L165.937 12.3948H161.858V17.7619H159.355V0.314475H166.537C169.341 0.314475 171.142 1.91197 171.919 3.95902C172.495 5.50602 172.495 7.20449 171.919 8.7515C171.393 10.2985 170.192 11.4969 168.665 12.0715M161.858 9.92467H166.613C167.94 9.94991 169.166 9.12532 169.591 7.87762C169.966 6.90398 169.966 5.80533 169.591 4.83169C169.166 3.68376 168.14 2.80988 166.539 2.80988H161.859V9.92347L161.858 9.92467Z" fill="#041E18"/>
<path d="M186.033 15.2905V17.7872H175.923V17.7619H174.672V0.288064H185.708V2.78467H177.174V7.85241H183.532V10.3478H177.174V15.2905H186.033Z" fill="#041E18"/>
<path d="M210.885 10.6976H213.438C212.587 15.2653 208.358 18.435 203.728 18.0107C199.074 17.5612 195.519 13.6918 195.519 9.02438C195.519 4.35691 199.074 0.487593 203.728 0.0380354C208.358 -0.38628 212.587 2.78346 213.438 7.35116H210.885C210.16 4.53 207.631 2.55868 204.704 2.48416C201.801 2.40963 199.198 4.28119 198.297 7.05185C197.421 9.82252 198.497 12.8432 200.925 14.4659C202.026 15.2148 203.277 15.5646 204.553 15.5646C207.506 15.5646 210.16 13.568 210.885 10.6976Z" fill="#041E18"/>
<path d="M226.978 15.2905V17.7872H216.868V17.7619H215.617V0.288064H226.653V2.78467H218.119V7.85241H224.476V10.3478H218.119V15.2905H226.978Z" fill="#041E18"/>
<path d="M245.474 0.288064V17.7619H242.971V4.90625L237.24 11.2217L231.508 4.90625V17.7619H229.006V0.288064H230.657L237.24 7.52787L243.822 0.288064H245.474Z" fill="#041E18"/>
<path d="M250.931 0.289238H248.428V17.7619H250.931V0.289238Z" fill="#041E18"/>
<path d="M271.176 7.77667V9.02438C271.176 13.7676 267.497 17.7114 262.743 18.036C257.987 18.3353 253.807 14.9407 253.182 10.2228C252.557 5.53009 255.685 1.13669 260.365 0.18829C260.965 0.063279 261.541 0.0127956 262.141 0.0127956C266.146 0.0127956 269.775 2.65965 270.875 6.67802H268.248C267.246 4.10689 264.819 2.48416 262.167 2.48416C261.666 2.48416 261.165 2.53464 260.665 2.65965C257.487 3.40852 255.334 6.35348 255.609 9.59895C255.909 12.8444 258.538 15.3651 261.791 15.5406C265.069 15.7148 267.948 13.4683 268.573 10.2733H262.492V7.77667H271.176Z" fill="#041E18"/>
<defs>
<linearGradient id="paint0_linear_166_642" x1="62.9412" y1="6.46455" x2="67.7981" y2="8.69624" gradientUnits="userSpaceOnUse">
<stop stop-color="#00FF7A"/>
<stop offset="1" stop-color="#C4FF00"/>
</linearGradient>
</defs>
</svg>
